<mxfile host="app.diagrams.net" agent="Mozilla/5.0 (Windows NT 10.0; Win64; x64) AppleWebKit/537.36 (KHTML, like Gecko) Chrome/130.0.0.0 Safari/537.36" version="24.8.2">
  <diagram name="Page-1" id="g2wtxnKHW3eHsXFLyP9X">
    <mxGraphModel dx="1134" dy="649" grid="1" gridSize="10" guides="1" tooltips="1" connect="1" arrows="1" fold="1" page="1" pageScale="1" pageWidth="850" pageHeight="1100" math="0" shadow="0">
      <root>
        <mxCell id="0" />
        <mxCell id="1" parent="0" />
        <mxCell id="Ctyly8XGbmX3QEoeAObu-1" value="User" style="swimlane;fontStyle=1;align=center;verticalAlign=top;childLayout=stackLayout;horizontal=1;startSize=26;horizontalStack=0;resizeParent=1;resizeParentMax=0;resizeLast=0;collapsible=1;marginBottom=0;whiteSpace=wrap;html=1;" parent="1" vertex="1">
          <mxGeometry x="337" y="21" width="200" height="180" as="geometry" />
        </mxCell>
        <mxCell id="Ctyly8XGbmX3QEoeAObu-2" value="&lt;div&gt;+name&lt;/div&gt;&lt;div&gt;-email&lt;/div&gt;&lt;div&gt;-password&lt;/div&gt;&lt;div&gt;-phoneNumber&lt;/div&gt;&lt;div&gt;+address&lt;/div&gt;&lt;div&gt;+role&lt;/div&gt;" style="text;strokeColor=none;fillColor=none;align=left;verticalAlign=top;spacingLeft=4;spacingRight=4;overflow=hidden;rotatable=0;points=[[0,0.5],[1,0.5]];portConstraint=eastwest;whiteSpace=wrap;html=1;" parent="Ctyly8XGbmX3QEoeAObu-1" vertex="1">
          <mxGeometry y="26" width="200" height="94" as="geometry" />
        </mxCell>
        <mxCell id="Ctyly8XGbmX3QEoeAObu-3" value="" style="line;strokeWidth=1;fillColor=none;align=left;verticalAlign=middle;spacingTop=-1;spacingLeft=3;spacingRight=3;rotatable=0;labelPosition=right;points=[];portConstraint=eastwest;strokeColor=inherit;" parent="Ctyly8XGbmX3QEoeAObu-1" vertex="1">
          <mxGeometry y="120" width="200" height="8" as="geometry" />
        </mxCell>
        <mxCell id="Ctyly8XGbmX3QEoeAObu-4" value="+register()&lt;div&gt;+login()&lt;/div&gt;&lt;div&gt;+updateProfile()&lt;/div&gt;" style="text;strokeColor=none;fillColor=none;align=left;verticalAlign=top;spacingLeft=4;spacingRight=4;overflow=hidden;rotatable=0;points=[[0,0.5],[1,0.5]];portConstraint=eastwest;whiteSpace=wrap;html=1;" parent="Ctyly8XGbmX3QEoeAObu-1" vertex="1">
          <mxGeometry y="128" width="200" height="52" as="geometry" />
        </mxCell>
        <mxCell id="Ctyly8XGbmX3QEoeAObu-5" value="Adopter" style="swimlane;fontStyle=1;align=center;verticalAlign=top;childLayout=stackLayout;horizontal=1;startSize=26;horizontalStack=0;resizeParent=1;resizeParentMax=0;resizeLast=0;collapsible=1;marginBottom=0;whiteSpace=wrap;html=1;" parent="1" vertex="1">
          <mxGeometry x="92" y="280" width="200" height="110" as="geometry" />
        </mxCell>
        <mxCell id="Ctyly8XGbmX3QEoeAObu-6" value="+savedPets" style="text;strokeColor=none;fillColor=none;align=left;verticalAlign=top;spacingLeft=4;spacingRight=4;overflow=hidden;rotatable=0;points=[[0,0.5],[1,0.5]];portConstraint=eastwest;whiteSpace=wrap;html=1;" parent="Ctyly8XGbmX3QEoeAObu-5" vertex="1">
          <mxGeometry y="26" width="200" height="22" as="geometry" />
        </mxCell>
        <mxCell id="Ctyly8XGbmX3QEoeAObu-7" value="" style="line;strokeWidth=1;fillColor=none;align=left;verticalAlign=middle;spacingTop=-1;spacingLeft=3;spacingRight=3;rotatable=0;labelPosition=right;points=[];portConstraint=eastwest;strokeColor=inherit;" parent="Ctyly8XGbmX3QEoeAObu-5" vertex="1">
          <mxGeometry y="48" width="200" height="8" as="geometry" />
        </mxCell>
        <mxCell id="Ctyly8XGbmX3QEoeAObu-8" value="+searchPets()&lt;div&gt;+savePet()&lt;/div&gt;&lt;div&gt;+requestAdoption&lt;/div&gt;" style="text;strokeColor=none;fillColor=none;align=left;verticalAlign=top;spacingLeft=4;spacingRight=4;overflow=hidden;rotatable=0;points=[[0,0.5],[1,0.5]];portConstraint=eastwest;whiteSpace=wrap;html=1;" parent="Ctyly8XGbmX3QEoeAObu-5" vertex="1">
          <mxGeometry y="56" width="200" height="54" as="geometry" />
        </mxCell>
        <mxCell id="Ctyly8XGbmX3QEoeAObu-17" value="Shelter" style="swimlane;fontStyle=1;align=center;verticalAlign=top;childLayout=stackLayout;horizontal=1;startSize=26;horizontalStack=0;resizeParent=1;resizeParentMax=0;resizeLast=0;collapsible=1;marginBottom=0;whiteSpace=wrap;html=1;" parent="1" vertex="1">
          <mxGeometry x="591" y="280" width="200" height="162" as="geometry" />
        </mxCell>
        <mxCell id="Ctyly8XGbmX3QEoeAObu-18" value="+shelterName&lt;div&gt;+shelterLocation&lt;/div&gt;&lt;div&gt;+listedPets&lt;/div&gt;" style="text;strokeColor=none;fillColor=none;align=left;verticalAlign=top;spacingLeft=4;spacingRight=4;overflow=hidden;rotatable=0;points=[[0,0.5],[1,0.5]];portConstraint=eastwest;whiteSpace=wrap;html=1;" parent="Ctyly8XGbmX3QEoeAObu-17" vertex="1">
          <mxGeometry y="26" width="200" height="54" as="geometry" />
        </mxCell>
        <mxCell id="Ctyly8XGbmX3QEoeAObu-19" value="" style="line;strokeWidth=1;fillColor=none;align=left;verticalAlign=middle;spacingTop=-1;spacingLeft=3;spacingRight=3;rotatable=0;labelPosition=right;points=[];portConstraint=eastwest;strokeColor=inherit;" parent="Ctyly8XGbmX3QEoeAObu-17" vertex="1">
          <mxGeometry y="80" width="200" height="8" as="geometry" />
        </mxCell>
        <mxCell id="Ctyly8XGbmX3QEoeAObu-20" value="+searchPets()&lt;div&gt;+savePet()&lt;/div&gt;&lt;div&gt;+requestAdoption&lt;/div&gt;" style="text;strokeColor=none;fillColor=none;align=left;verticalAlign=top;spacingLeft=4;spacingRight=4;overflow=hidden;rotatable=0;points=[[0,0.5],[1,0.5]];portConstraint=eastwest;whiteSpace=wrap;html=1;" parent="Ctyly8XGbmX3QEoeAObu-17" vertex="1">
          <mxGeometry y="88" width="200" height="74" as="geometry" />
        </mxCell>
        <mxCell id="Ctyly8XGbmX3QEoeAObu-21" value="Pet" style="swimlane;fontStyle=1;align=center;verticalAlign=top;childLayout=stackLayout;horizontal=1;startSize=26;horizontalStack=0;resizeParent=1;resizeParentMax=0;resizeLast=0;collapsible=1;marginBottom=0;whiteSpace=wrap;html=1;" parent="1" vertex="1">
          <mxGeometry x="589" y="516" width="200" height="210" as="geometry" />
        </mxCell>
        <mxCell id="Ctyly8XGbmX3QEoeAObu-22" value="+petID&lt;div&gt;+name&lt;/div&gt;&lt;div&gt;+breed&lt;/div&gt;&lt;div&gt;+age&lt;/div&gt;&lt;div&gt;+gender&lt;/div&gt;&lt;div&gt;+isAdopted&lt;/div&gt;&lt;div&gt;+adoptionFee&lt;/div&gt;&lt;div&gt;+images&lt;/div&gt;&lt;div&gt;+shelter&lt;/div&gt;" style="text;strokeColor=none;fillColor=none;align=left;verticalAlign=top;spacingLeft=4;spacingRight=4;overflow=hidden;rotatable=0;points=[[0,0.5],[1,0.5]];portConstraint=eastwest;whiteSpace=wrap;html=1;" parent="Ctyly8XGbmX3QEoeAObu-21" vertex="1">
          <mxGeometry y="26" width="200" height="144" as="geometry" />
        </mxCell>
        <mxCell id="Ctyly8XGbmX3QEoeAObu-23" value="" style="line;strokeWidth=1;fillColor=none;align=left;verticalAlign=middle;spacingTop=-1;spacingLeft=3;spacingRight=3;rotatable=0;labelPosition=right;points=[];portConstraint=eastwest;strokeColor=inherit;" parent="Ctyly8XGbmX3QEoeAObu-21" vertex="1">
          <mxGeometry y="170" width="200" height="8" as="geometry" />
        </mxCell>
        <mxCell id="Ctyly8XGbmX3QEoeAObu-24" value="+displayDetails()" style="text;strokeColor=none;fillColor=none;align=left;verticalAlign=top;spacingLeft=4;spacingRight=4;overflow=hidden;rotatable=0;points=[[0,0.5],[1,0.5]];portConstraint=eastwest;whiteSpace=wrap;html=1;" parent="Ctyly8XGbmX3QEoeAObu-21" vertex="1">
          <mxGeometry y="178" width="200" height="32" as="geometry" />
        </mxCell>
        <mxCell id="Ctyly8XGbmX3QEoeAObu-25" value="AdoptionRequest" style="swimlane;fontStyle=1;align=center;verticalAlign=top;childLayout=stackLayout;horizontal=1;startSize=26;horizontalStack=0;resizeParent=1;resizeParentMax=0;resizeLast=0;collapsible=1;marginBottom=0;whiteSpace=wrap;html=1;" parent="1" vertex="1">
          <mxGeometry x="80" y="465" width="200" height="160" as="geometry" />
        </mxCell>
        <mxCell id="Ctyly8XGbmX3QEoeAObu-26" value="&lt;div&gt;+requestID&lt;/div&gt;&lt;div&gt;+adopter&lt;/div&gt;&lt;div&gt;+petID&lt;/div&gt;&lt;div&gt;+status&lt;/div&gt;" style="text;strokeColor=none;fillColor=none;align=left;verticalAlign=top;spacingLeft=4;spacingRight=4;overflow=hidden;rotatable=0;points=[[0,0.5],[1,0.5]];portConstraint=eastwest;whiteSpace=wrap;html=1;" parent="Ctyly8XGbmX3QEoeAObu-25" vertex="1">
          <mxGeometry y="26" width="200" height="74" as="geometry" />
        </mxCell>
        <mxCell id="Ctyly8XGbmX3QEoeAObu-27" value="" style="line;strokeWidth=1;fillColor=none;align=left;verticalAlign=middle;spacingTop=-1;spacingLeft=3;spacingRight=3;rotatable=0;labelPosition=right;points=[];portConstraint=eastwest;strokeColor=inherit;" parent="Ctyly8XGbmX3QEoeAObu-25" vertex="1">
          <mxGeometry y="100" width="200" height="8" as="geometry" />
        </mxCell>
        <mxCell id="Ctyly8XGbmX3QEoeAObu-28" value="+approveRequest()&lt;div&gt;+rejectRequest()&lt;/div&gt;" style="text;strokeColor=none;fillColor=none;align=left;verticalAlign=top;spacingLeft=4;spacingRight=4;overflow=hidden;rotatable=0;points=[[0,0.5],[1,0.5]];portConstraint=eastwest;whiteSpace=wrap;html=1;" parent="Ctyly8XGbmX3QEoeAObu-25" vertex="1">
          <mxGeometry y="108" width="200" height="52" as="geometry" />
        </mxCell>
        <mxCell id="pg7R9SHr2b2mWMY7zGCO-1" value="Donation" style="swimlane;fontStyle=1;align=center;verticalAlign=top;childLayout=stackLayout;horizontal=1;startSize=26;horizontalStack=0;resizeParent=1;resizeParentMax=0;resizeLast=0;collapsible=1;marginBottom=0;whiteSpace=wrap;html=1;" vertex="1" parent="1">
          <mxGeometry x="337" y="350" width="200" height="130" as="geometry" />
        </mxCell>
        <mxCell id="pg7R9SHr2b2mWMY7zGCO-2" value="+donationID&lt;div&gt;+shelter&lt;/div&gt;&lt;div&gt;+amount&lt;/div&gt;&lt;div&gt;+donor&lt;/div&gt;" style="text;strokeColor=none;fillColor=none;align=left;verticalAlign=top;spacingLeft=4;spacingRight=4;overflow=hidden;rotatable=0;points=[[0,0.5],[1,0.5]];portConstraint=eastwest;whiteSpace=wrap;html=1;" vertex="1" parent="pg7R9SHr2b2mWMY7zGCO-1">
          <mxGeometry y="26" width="200" height="74" as="geometry" />
        </mxCell>
        <mxCell id="pg7R9SHr2b2mWMY7zGCO-3" value="" style="line;strokeWidth=1;fillColor=none;align=left;verticalAlign=middle;spacingTop=-1;spacingLeft=3;spacingRight=3;rotatable=0;labelPosition=right;points=[];portConstraint=eastwest;strokeColor=inherit;" vertex="1" parent="pg7R9SHr2b2mWMY7zGCO-1">
          <mxGeometry y="100" width="200" height="8" as="geometry" />
        </mxCell>
        <mxCell id="pg7R9SHr2b2mWMY7zGCO-4" value="+makeDonation&lt;span style=&quot;background-color: initial;&quot;&gt;()&lt;/span&gt;" style="text;strokeColor=none;fillColor=none;align=left;verticalAlign=top;spacingLeft=4;spacingRight=4;overflow=hidden;rotatable=0;points=[[0,0.5],[1,0.5]];portConstraint=eastwest;whiteSpace=wrap;html=1;" vertex="1" parent="pg7R9SHr2b2mWMY7zGCO-1">
          <mxGeometry y="108" width="200" height="22" as="geometry" />
        </mxCell>
        <mxCell id="pg7R9SHr2b2mWMY7zGCO-5" value="" style="endArrow=none;html=1;rounded=0;" edge="1" parent="1">
          <mxGeometry width="50" height="50" relative="1" as="geometry">
            <mxPoint x="220" y="241" as="sourcePoint" />
            <mxPoint x="640" y="241" as="targetPoint" />
          </mxGeometry>
        </mxCell>
        <mxCell id="pg7R9SHr2b2mWMY7zGCO-6" value="" style="endArrow=none;html=1;rounded=0;" edge="1" parent="1">
          <mxGeometry width="50" height="50" relative="1" as="geometry">
            <mxPoint x="220" y="280" as="sourcePoint" />
            <mxPoint x="220" y="240" as="targetPoint" />
          </mxGeometry>
        </mxCell>
        <mxCell id="pg7R9SHr2b2mWMY7zGCO-7" value="" style="endArrow=none;html=1;rounded=0;" edge="1" parent="1">
          <mxGeometry width="50" height="50" relative="1" as="geometry">
            <mxPoint x="639" y="279" as="sourcePoint" />
            <mxPoint x="639" y="239" as="targetPoint" />
          </mxGeometry>
        </mxCell>
        <mxCell id="pg7R9SHr2b2mWMY7zGCO-9" value="" style="endArrow=classic;html=1;rounded=0;entryX=0.483;entryY=0.991;entryDx=0;entryDy=0;entryPerimeter=0;" edge="1" parent="1" target="Ctyly8XGbmX3QEoeAObu-4">
          <mxGeometry width="50" height="50" relative="1" as="geometry">
            <mxPoint x="434" y="240" as="sourcePoint" />
            <mxPoint x="400" y="320" as="targetPoint" />
          </mxGeometry>
        </mxCell>
        <mxCell id="pg7R9SHr2b2mWMY7zGCO-23" value="" style="endArrow=none;html=1;rounded=0;exitX=0.485;exitY=1.07;exitDx=0;exitDy=0;exitPerimeter=0;entryX=0.5;entryY=0;entryDx=0;entryDy=0;" edge="1" parent="1">
          <mxGeometry width="50" height="50" relative="1" as="geometry">
            <mxPoint x="627.0000000000002" y="441.18000000000006" as="sourcePoint" />
            <mxPoint x="628" y="515" as="targetPoint" />
          </mxGeometry>
        </mxCell>
        <mxCell id="pg7R9SHr2b2mWMY7zGCO-24" value="&lt;font style=&quot;font-size: 15px;&quot;&gt;1&lt;/font&gt;" style="text;html=1;align=center;verticalAlign=middle;resizable=0;points=[];autosize=1;strokeColor=none;fillColor=none;" vertex="1" parent="1">
          <mxGeometry x="600" y="442" width="30" height="30" as="geometry" />
        </mxCell>
        <mxCell id="pg7R9SHr2b2mWMY7zGCO-25" value="&lt;font style=&quot;font-size: 16px;&quot;&gt;0..*&lt;/font&gt;" style="text;html=1;align=center;verticalAlign=middle;resizable=0;points=[];autosize=1;strokeColor=none;fillColor=none;" vertex="1" parent="1">
          <mxGeometry x="620" y="488" width="50" height="30" as="geometry" />
        </mxCell>
        <mxCell id="pg7R9SHr2b2mWMY7zGCO-27" value="&lt;font style=&quot;font-size: 15px;&quot;&gt;1&lt;/font&gt;" style="text;html=1;align=center;verticalAlign=middle;resizable=0;points=[];autosize=1;strokeColor=none;fillColor=none;" vertex="1" parent="1">
          <mxGeometry x="190" y="400" width="30" height="30" as="geometry" />
        </mxCell>
        <mxCell id="pg7R9SHr2b2mWMY7zGCO-29" value="&lt;font style=&quot;font-size: 16px;&quot;&gt;0..*&lt;/font&gt;" style="text;html=1;align=center;verticalAlign=middle;resizable=0;points=[];autosize=1;strokeColor=none;fillColor=none;" vertex="1" parent="1">
          <mxGeometry x="220" y="435" width="50" height="30" as="geometry" />
        </mxCell>
        <mxCell id="pg7R9SHr2b2mWMY7zGCO-30" value="" style="endArrow=none;html=1;rounded=0;exitX=0.485;exitY=1.07;exitDx=0;exitDy=0;exitPerimeter=0;entryX=0.5;entryY=0;entryDx=0;entryDy=0;" edge="1" parent="1">
          <mxGeometry width="50" height="50" relative="1" as="geometry">
            <mxPoint x="220.00000000000023" y="390.00000000000006" as="sourcePoint" />
            <mxPoint x="221" y="463.82" as="targetPoint" />
          </mxGeometry>
        </mxCell>
        <mxCell id="pg7R9SHr2b2mWMY7zGCO-31" value="" style="endArrow=none;html=1;rounded=0;entryX=0;entryY=0.5;entryDx=0;entryDy=0;exitX=1.011;exitY=0.669;exitDx=0;exitDy=0;exitPerimeter=0;" edge="1" parent="1" source="Ctyly8XGbmX3QEoeAObu-26" target="Ctyly8XGbmX3QEoeAObu-22">
          <mxGeometry width="50" height="50" relative="1" as="geometry">
            <mxPoint x="220" y="670" as="sourcePoint" />
            <mxPoint x="450" y="600" as="targetPoint" />
            <Array as="points">
              <mxPoint x="440" y="541" />
              <mxPoint x="440" y="614" />
            </Array>
          </mxGeometry>
        </mxCell>
        <mxCell id="pg7R9SHr2b2mWMY7zGCO-32" value="&lt;font style=&quot;font-size: 16px;&quot;&gt;1..*&lt;/font&gt;" style="text;html=1;align=center;verticalAlign=middle;resizable=0;points=[];autosize=1;strokeColor=none;fillColor=none;" vertex="1" parent="1">
          <mxGeometry x="287" y="510" width="50" height="30" as="geometry" />
        </mxCell>
        <mxCell id="pg7R9SHr2b2mWMY7zGCO-33" value="&lt;font style=&quot;font-size: 15px;&quot;&gt;1&lt;/font&gt;" style="text;html=1;align=center;verticalAlign=middle;resizable=0;points=[];autosize=1;strokeColor=none;fillColor=none;" vertex="1" parent="1">
          <mxGeometry x="559" y="580" width="30" height="30" as="geometry" />
        </mxCell>
        <mxCell id="pg7R9SHr2b2mWMY7zGCO-34" value="" style="endArrow=none;html=1;rounded=0;entryX=-0.001;entryY=0.075;entryDx=0;entryDy=0;entryPerimeter=0;exitX=0.75;exitY=0;exitDx=0;exitDy=0;" edge="1" parent="1" source="pg7R9SHr2b2mWMY7zGCO-1" target="Ctyly8XGbmX3QEoeAObu-18">
          <mxGeometry width="50" height="50" relative="1" as="geometry">
            <mxPoint x="480" y="330" as="sourcePoint" />
            <mxPoint x="530" y="280" as="targetPoint" />
            <Array as="points">
              <mxPoint x="487" y="310" />
            </Array>
          </mxGeometry>
        </mxCell>
        <mxCell id="pg7R9SHr2b2mWMY7zGCO-35" value="&lt;font style=&quot;font-size: 16px;&quot;&gt;0..*&lt;/font&gt;" style="text;html=1;align=center;verticalAlign=middle;resizable=0;points=[];autosize=1;strokeColor=none;fillColor=none;" vertex="1" parent="1">
          <mxGeometry x="440" y="320" width="50" height="30" as="geometry" />
        </mxCell>
        <mxCell id="pg7R9SHr2b2mWMY7zGCO-36" value="&lt;font style=&quot;font-size: 15px;&quot;&gt;1&lt;/font&gt;" style="text;html=1;align=center;verticalAlign=middle;resizable=0;points=[];autosize=1;strokeColor=none;fillColor=none;" vertex="1" parent="1">
          <mxGeometry x="561" y="285" width="30" height="30" as="geometry" />
        </mxCell>
      </root>
    </mxGraphModel>
  </diagram>
</mxfile>
